<?xml version="1.0" encoding="UTF-8" standalone="no"?>
<svg
   xmlns:dc="http://purl.org/dc/elements/1.1/"
   xmlns:cc="http://creativecommons.org/ns#"
   xmlns:rdf="http://www.w3.org/1999/02/22-rdf-syntax-ns#"
   xmlns:svg="http://www.w3.org/2000/svg"
   xmlns="http://www.w3.org/2000/svg"
   xmlns:sodipodi="http://sodipodi.sourceforge.net/DTD/sodipodi-0.dtd"
   xmlns:inkscape="http://www.inkscape.org/namespaces/inkscape"
   width="47.0"
   height="52.0"
   x="0.0"
   y="0.0"
   viewBox="0 0 47 52"
   version="1.1"
   id="svg4"
   sodipodi:docname="bird.svg"
   inkscape:version="0.92.5 (2060ec1f9f, 2020-04-08)">
  <metadata
     id="metadata10">
    <rdf:RDF>
      <cc:Work
         rdf:about="">
        <dc:format>image/svg+xml</dc:format>
        <dc:type
           rdf:resource="http://purl.org/dc/dcmitype/StillImage" />
        <dc:title></dc:title>
      </cc:Work>
    </rdf:RDF>
  </metadata>
  <defs
     id="defs8" />
  <sodipodi:namedview
     pagecolor="#ffffff"
     bordercolor="#666666"
     borderopacity="1"
     objecttolerance="10"
     gridtolerance="10"
     guidetolerance="10"
     inkscape:pageopacity="0"
     inkscape:pageshadow="2"
     inkscape:window-width="1712"
     inkscape:window-height="899"
     id="namedview6"
     showgrid="false"
     inkscape:zoom="6.4183539"
     inkscape:cx="23.40756"
     inkscape:cy="27.674799"
     inkscape:window-x="0"
     inkscape:window-y="27"
     inkscape:window-maximized="1"
     inkscape:current-layer="svg4" />
  <path
     d="M22.404 0L21.29.767 20.6 5.81l-2.234 4.855-2.774 6.42-.865 4.092v.01l.526 4.614.29.893-.031-.028-2.08-2.129-.036-.037-.04-.032-.708-.542-.108-.083-.13-.04-.855-.253-.078-.023-.083-.005-.81-.051-.142-.01-.135.045-.605.2-.169.056-.125.127-.523.534-.068.07-.048.084-.312.553-.311.22-2.012.838-.477.198-.093-.503-.038-2.609 2-.354 1.151-.388 1.096-.82.593-.986-1.077-.099-1.302.107-1.088.47-1.297 1.382.444-2.69.868-.284 1.368-.683 1.035-.957.436-1.283-1.182.055L7.35 17l-1.057.64-.717.966-.345 1.224-.379 1.878-.813-1.378-.949-1.12-1.079-.686-1.015-.34.119.882.723 1.488.923 1.026 1.325.678.714.292-.134 1.116.099 1.688-.862-1.195-.996-.845-1.138-.474-1.03-.192L0 22.6l.606.87.876.897 1 .752 1.168.48 1.174.294.048.708.013.107-1.32.55 1.406.172.208 1.737.469 2.878.906-.758-.685-3.748.458.056 2.468.301.112.06.183.268.345.583.685 1.876.237 1.832.001.009v.008l.329 2.148.006.04.01.037.521 1.972.025.094.049.083 1.384 2.404.051.089.074.072.701.679.053.052.062.038 1.24.795.05.032.057.024 1.448.62.055.023.06.014 2.303.565.05.012.05.005 3.13.32 2.068.586.955.988 1.45 2.688.009.013.007.014 1.784 3.003.028.048.034.04 1.193 1.462.285.35.44-.096 3.104-.678.078-.017.071-.033 3.739-1.712.074-.035.066-.05 2.986-2.289.113-.086.073-.124 1.957-3.34.068-.119.023-.135.085-.525.584-3.628.208-1.287-1.209.49-3.554 1.443-3.363.373-3.206-.338-1.723-.686-1.255-1.028.02-.132 2.323-1.699.038-.028.034-.032 3.12-2.959 1.536-1.376.04-.036.035-.042 2.854-3.441.022-.026.019-.028 2.893-4.225.014-.022.014-.023 3.073-5.27.057-.096.024-.107.83-3.535.094-.396-.286-.29-1.511-1.528-.335-.338-.445.167-2.995 1.123-3.612 1.391-3.144 1.007-3.329.511-.17-1.258-1.814 1.985-3.474 2.622-.078-.093 3.327-3.087 1.917-2.325-.338-2.493-1.03-3.536-.82 1.75-1.78 2.763-2.747 2.735-.091-.082 2.373-3.056 1.683-2.795 1.053-2.352-2.334-4.378-.62 2.1-1.556 3.498-1.957 2.9-.106-.06 1.539-3.142 1.537-3.729.47-2.24L24.109.825 22.404 0zm3.174 23.824l1.715-1.228 1.798-1.553 1.87-2.031-.241-1.772 3.398-.523 3.22-1.03 3.632-1.4 2.988-1.12 1.512 1.529-.65 2.764-3.917 1.618-3.789.981-4.16.516 4.186.15 3.923-.838 3.223-1.048-2.384 4.088-3.26.506-3.24.093-2.628-.097 2.65.559 3.135.087 2.726-.162-2.234 3.261-2.568.008-2.237-.301-2.263-.427 2.033.865 2.468.507 2.041.079-2.45 2.956-1.243-.262-1.983-.51-1.504-.459 1.384.787 1.965.716.943.2-1.362 1.22-3.128 2.965-2.564 1.877-.137.846 1.67 1.37 1.923.766 3.386.354 3.543-.391 3.648-1.481-.575 3.564-1.969.33-2.718.033-2.447-.05-1.48-.154 1.44.498h.007l2.425.262 2.902.075 1.594-.145-1.405 2.4-1.8-.061-2.132-.183-2.162-.458-1.76-.577 1.62.937 2.195.715h.006l2.16.284 1.4.08-2.497 1.914-2.618-.821-1.995-.766-1.914-.877 1.701 1.276 1.864.852 2.088.864-2.884 1.32-2.864-1.749-1.8-1.294 1.41 1.57 2.262 1.785-2.506.547-1.192-1.461-1.784-3.003-1.496-2.776-1.163-1.205-2.321-.657-3.194-.326-2.304-.565-1.45-.619-1.239-.793-.7-.68-1.384-2.403-.522-1.97-.328-2.15-.247-1.912-.737-2.017-.391-.66-.3-.44-.393-.207-3.05-.278 2.535-.91.513-.362.391-.698.525-.534.605-.2.81.052.854.253.706.542 2.095 2.145.993.899.422 1.3L19.54 34.5l3.496 2.26 3.288-.11 1.955-2.856 1.22-3.563-1.327.37-2.121.273-.027-.12L28 30.139l1.732-.58.726-2.12v-.01l.128-2.061-1.157.694-3.17 1.311-.053-.11 3.056-1.69 1.375-1.039.275-4.49-1.39 1.35-1.87 1.46-2.008 1.074-.065-.104zm-14.874 1.412l-.383.249-.095.447.25.381.446.096.382-.25.094-.446-.248-.382-.446-.095z"
     id="path2"
     fill-rule="evenodd" />
</svg>
