<?xml version="1.0" encoding="UTF-8" standalone="no"?>
<svg
   enable-background="new 0 0 24 24"
   height="24px"
   viewBox="0 0 24 24"
   width="24px"
   fill="#000000"
   version="1.1"
   id="svg55"
   sodipodi:docname="food_bank_black_24dp.svg"
   inkscape:version="1.1.1 (3bf5ae0d25, 2021-09-20, custom)"
   xmlns:inkscape="http://www.inkscape.org/namespaces/inkscape"
   xmlns:sodipodi="http://sodipodi.sourceforge.net/DTD/sodipodi-0.dtd"
   xmlns="http://www.w3.org/2000/svg"
   xmlns:svg="http://www.w3.org/2000/svg">
  <defs
     id="defs59" />
  <sodipodi:namedview
     id="namedview57"
     pagecolor="#ffffff"
     bordercolor="#666666"
     borderopacity="1.0"
     inkscape:pageshadow="2"
     inkscape:pageopacity="0.0"
     inkscape:pagecheckerboard="0"
     showgrid="false"
     inkscape:zoom="23.869968"
     inkscape:cx="14.139105"
     inkscape:cy="12.672828"
     inkscape:window-width="1600"
     inkscape:window-height="831"
     inkscape:window-x="0"
     inkscape:window-y="0"
     inkscape:window-maximized="1"
     inkscape:current-layer="svg55" />
  <rect
     fill="none"
     height="24"
     width="24"
     id="rect51" />
  <path
     d="M 9.8923316,4.0634293 4.741982,8.4 C 4.2782433,8.78 4,9.37 4,10 v 9 c 0,1.1 0.8347298,2 1.8549551,2 H 16.984685 c 1.020226,0 1.854956,-0.9 1.854956,-2 v -9 c 0,-0.63 -0.278244,-1.22 -0.741982,-1.6 L 12.969477,4.0123841 C 12.112662,3.3020253 10.854039,3.1740211 9.8923316,4.0634293 Z M 11.883559,12.5 c 0,0.83 -0.62141,1.5 -1.391216,1.5 v 3.5 c 0,0.28 -0.204045,0.5 -0.463739,0.5 v 0 C 9.7689103,18 9.5648652,17.78 9.5648652,17.5 V 14 C 8.7950589,14 8.1736489,13.33 8.1736489,12.5 V 10 c 0,-0.28 0.2040451,-0.5 0.4637388,-0.5 v 0 c 0.2596937,0 0.4637387,0.22 0.4637387,0.5 v 2.5 H 9.5648652 V 10 c 0,-0.28 0.2040451,-0.5 0.4637388,-0.5 v 0 c 0.259694,0 0.463739,0.22 0.463739,0.5 v 2.5 h 0.463739 V 10 c 0,-0.28 0.204045,-0.5 0.463738,-0.5 v 0 c 0.259694,0 0.463739,0.22 0.463739,0.5 z m 1.854955,5.5 v 0 c -0.259694,0 -0.463739,-0.22 -0.463739,-0.5 v -3 h -0.463738 c -0.259694,0 -0.463739,-0.22 -0.463739,-0.5 v -2.5 c 0,-0.88 0.528662,-1.63 1.261369,-1.89 0.287518,-0.11 0.593586,0.14 0.593586,0.48 v 7.41 c 0,0.28 -0.204045,0.5 -0.463739,0.5 z"
     id="path53"
     style="fill:#000000;stroke-width:0.963056"
     sodipodi:nodetypes="ccsssssscccscsssscsssssccssssccsssssssscssscsss" />
  <rect
     style="fill:#000000"
     id="rect585"
     width="6.94098"
     height="9.7379074"
     x="8.7650852"
     y="8.6255007" />
  <rect
     style="fill:#000000"
     id="rect587"
     width="0.78140807"
     height="0.42449287"
     x="7.9836769"
     y="8.6255007"
     ry="0" />
  <rect
     style="fill:#000000"
     id="rect589"
     width="1.7814586"
     height="0.062000863"
     x="7.7360015"
     y="10.945121" />
  <rect
     style="fill:#000000"
     id="rect591"
     width="2.3069897"
     height="6.6099806"
     x="7.2094865"
     y="9.3786964" />
</svg>
