<?xml version="1.0" encoding="UTF-8" standalone="no"?>
<svg
   height="24px"
   viewBox="0 0 24 24"
   width="24px"
   fill="#000000"
   version="1.1"
   id="svg55"
   sodipodi:docname="person_black_24dp.svg"
   inkscape:version="1.1.1 (3bf5ae0d25, 2021-09-20, custom)"
   xmlns:inkscape="http://www.inkscape.org/namespaces/inkscape"
   xmlns:sodipodi="http://sodipodi.sourceforge.net/DTD/sodipodi-0.dtd"
   xmlns="http://www.w3.org/2000/svg"
   xmlns:svg="http://www.w3.org/2000/svg">
  <defs
     id="defs59">
    <inkscape:path-effect
       effect="fillet_chamfer"
       id="path-effect1071"
       is_visible="true"
       lpeversion="1"
       satellites_param="F,0,0,1,0,0.6,0,1 @ F,0,0,1,0,0.6,0,1 @ F,0,0,1,0,0.6,0,1 @ F,0,0,1,0,0.6,0,1 | F,0,0,1,0,0.6,0,1 @ F,0,0,1,0,0.6,0,1 @ F,0,0,1,0,0.6,0,1 @ F,0,0,1,0,0.6,0,1 @ F,0,0,1,0,0.6,0,1 @ F,0,0,1,0,0.6,0,1"
       unit="px"
       method="auto"
       mode="F"
       radius="0.6"
       chamfer_steps="1"
       flexible="false"
       use_knot_distance="true"
       apply_no_radius="true"
       apply_with_radius="true"
       only_selected="false"
       hide_knots="false" />
  </defs>
  <sodipodi:namedview
     id="namedview57"
     pagecolor="#ffffff"
     bordercolor="#666666"
     borderopacity="1.0"
     inkscape:pageshadow="2"
     inkscape:pageopacity="0.0"
     inkscape:pagecheckerboard="0"
     showgrid="false"
     inkscape:zoom="18.918224"
     inkscape:cx="7.2152652"
     inkscape:cy="15.567001"
     inkscape:window-width="1600"
     inkscape:window-height="831"
     inkscape:window-x="0"
     inkscape:window-y="0"
     inkscape:window-maximized="1"
     inkscape:current-layer="svg55" />
  <path
     d="M0 0h24v24H0z"
     fill="none"
     id="path51" />
  <path
     d="m 12.668652,12.675591 c 1.726792,-0.360594 3.047771,-2.240173 3.291071,-4.0774336 0.04347,-0.3282357 0.04497,-0.8685469 -0.004,-1.1959644 C 15.696527,5.6710607 14.329056,4.3035511 12.597943,4.0443421 12.270452,3.9953051 11.72961,3.9953072 11.402193,4.0443217 9.6710607,4.3034728 8.3035511,5.670944 8.0443421,7.4020573 7.9953051,7.7295478 7.9966763,8.2701532 8.043529,8.5979142 c 0.2628126,1.8385228 1.6852126,3.7194918 3.433552,4.0783728 0.324037,0.06651 0.86777,0.06692 1.191571,-6.96e-4 z m -1.288807,0.573241 C 8.8153693,13.496872 4.7321205,15.212745 4.0870464,17.408473 3.993969,17.725293 4,18.268629 4,18.6 v 0.8 A 0.6,0.6 45 0 0 4.6,20 H 19.4 A 0.6,0.6 135 0 0 20,19.4 v -0.8 c 0,-0.331371 0.006,-0.874814 -0.08771,-1.191452 -0.650101,-2.195948 -4.765353,-3.911962 -7.334543,-4.159778 -0.329684,-0.0318 -0.598926,-0.0308 -0.598928,-0.0308 z"
     id="path53"
     sodipodi:nodetypes="sssssssccss"
     inkscape:path-effect="#path-effect1071"
     inkscape:original-d="M 12.07291,12.737395 C 14.28291,12.737395 16,10.21 16,8 16,5.79 14.21,4 12,4 9.79,4 8,5.79 8,8 c 0,2.21 1.8629103,4.737395 4.07291,4.737395 z m -0.09409,0.480573 C 9.308823,13.217968 4,15.34 4,18 v 2 h 16 v -2 c 0,-2.66 -5.351177,-4.782032 -8.021177,-4.782032 z" />
</svg>
