<?xml version="1.0" encoding="UTF-8" standalone="no"?>
<svg
   viewBox="0 0 1440 320"
   version="1.1"
   id="svg4"
   sodipodi:docname="wave.svg"
   inkscape:version="1.1.2 (0a00cf5339, 2022-02-04)"
   xmlns:inkscape="http://www.inkscape.org/namespaces/inkscape"
   xmlns:sodipodi="http://sodipodi.sourceforge.net/DTD/sodipodi-0.dtd"
   xmlns="http://www.w3.org/2000/svg"
   xmlns:svg="http://www.w3.org/2000/svg">
  <defs
     id="defs8" />
  <sodipodi:namedview
     id="namedview6"
     pagecolor="#ffffff"
     bordercolor="#666666"
     borderopacity="1.0"
     inkscape:pageshadow="2"
     inkscape:pageopacity="0.0"
     inkscape:pagecheckerboard="0"
     showgrid="false"
     inkscape:zoom="0.84586998"
     inkscape:cx="1246.0544"
     inkscape:cy="328.06461"
     inkscape:window-width="1600"
     inkscape:window-height="831"
     inkscape:window-x="0"
     inkscape:window-y="0"
     inkscape:window-maximized="1"
     inkscape:current-layer="svg4" />
  <path
     fill="#0099ff"
     fill-opacity="1"
     d="m 0,72.967406 30.016441,-9.72342 C 60.032881,53.520552 120.06576,34.073698 180.09864,21.129385 240.13153,7.9419856 300.16441,1.8648426 360.19729,17.847727 c 60.03288,16.225971 120.06576,55.119679 180.09864,51.8988 60.03288,-3.463976 120.06576,-48.434828 180.09863,-51.8988 60.03293,-3.220885 120.06579,35.672825 180.09865,32.451946 60.03287,-3.463976 120.06579,-48.4348304 180.09869,-42.1753729 60.0328,6.5025419 120.0657,64.8431059 180.0986,74.5665389 60.0329,9.72342 120.0658,-29.170287 150.0822,-48.617141 l 30.0165,-19.446856 V 150.75483 h -30.0165 c -30.0164,0 -90.0493,0 -150.0822,0 -60.0329,0 -120.0658,0 -180.0986,0 -60.0329,0 -120.06582,0 -180.09869,0 -60.03286,0 -120.06572,0 -180.09865,0 -60.03287,0 -120.06575,0 -180.09863,0 -60.03288,0 -120.06576,0 -180.09864,0 -60.03288,0 -120.06576,0 -180.09865,0 -60.03288,0 -120.065759,0 -150.082199,0 H 0 Z"
     id="path2"
     style="stroke-width:0.779771" />
  <path
     fill="#0099ff"
     fill-opacity="1"
     d="m 1440.7892,226.32375 -30.0165,10.05306 c -30.0164,10.05305 -90.0493,30.15917 -150.0822,43.54229 -60.0328,13.63447 -120.0657,19.91763 -180.0986,3.39292 -60.0329,-16.77604 -120.06576,-56.98827 -180.09862,-53.6582 -60.03293,3.58141 -120.06579,50.07679 -180.09866,53.6582 -60.03293,3.33007 -120.06579,-36.88216 -180.09865,-33.55209 -60.03287,3.58141 -120.0658,50.0768 -180.09866,43.60513 C 300.16445,286.64209 240.13158,226.32375 180.09866,216.27069 120.06579,206.21764 60.032927,246.42986 30.016463,266.53598 L 0,286.64209 V 145.89935 h 30.016463 c 30.016464,0 90.049327,0 150.082197,0 60.03292,0 120.06579,0 180.09865,0 60.03286,0 120.06579,0 180.09866,0 60.03286,0 120.06572,0 180.09865,0 60.03287,0 120.06573,0 180.09866,0 60.03286,0 120.06572,0 180.09862,0 60.0329,0 120.0658,0 180.0986,0 60.0329,0 120.0658,0 150.0822,0 h 30.0165 z"
     id="path2-3"
     style="stroke-width:0.792878" />
</svg>
